<svg xmlns="http://www.w3.org/2000/svg" version="1.1" xmlns:xlink="http://www.w3.org/1999/xlink" xmlns:svgjs="http://svgjs.com/svgjs" width="1440" height="1000" preserveAspectRatio="none" viewBox="0 0 1440 1000"><g mask="url(&quot;#SvgjsMask1074&quot;)" fill="none"><rect width="1440" height="1000" x="0" y="0" fill="#1e3266"></rect><path d="M1488 1000L0 1000 L0 645.42Q51.14 624.56, 72 675.69Q85.77 569.46, 192 583.23Q223.35 494.58, 312 525.93Q389.75 483.67, 432 561.42Q512.4 569.82, 504 650.21Q501.2 575.41, 576 572.61Q622.32 498.93, 696 545.26Q721.87 499.13, 768 525Q819.68 504.68, 840 556.36Q903.49 547.85, 912 611.33Q955.11 534.44, 1032 577.55Q1097.72 523.27, 1152 588.99Q1227.28 592.27, 1224 667.55Q1203.13 574.68, 1296 553.82Q1343.6 481.42, 1416 529.02Q1474.36 515.38, 1488 573.74z" fill="#182f5d"></path><path d="M1464 1000L0 1000 L0 677.17Q117.14 674.31, 120 791.44Q167.86 719.3, 240 767.15Q305.43 712.58, 360 778Q403.44 749.44, 432 792.89Q443.63 732.52, 504 744.15Q506.89 675.04, 576 677.93Q621.85 603.77, 696 649.62Q778.11 611.73, 816 693.83Q897.14 654.97, 936 736.11Q966.52 646.63, 1056 677.16Q1101.14 650.31, 1128 695.45Q1193.14 688.59, 1200 753.73Q1200.88 682.61, 1272 683.49Q1297.82 637.31, 1344 663.12Q1431.63 630.75, 1464 718.39z" fill="rgba(214, 217, 223, 1)"></path><path d="M1488 1000L0 1000 L0 812.29Q20.28 760.57, 72 780.85Q161.39 750.24, 192 839.63Q252.46 828.09, 264 888.54Q335.9 840.44, 384 912.35Q420.8 829.15, 504 865.96Q517.6 759.56, 624 773.15Q690.51 767.66, 696 834.17Q737.09 803.25, 768 844.34Q824.8 829.14, 840 885.95Q917.82 843.77, 960 921.58Q984.46 874.04, 1032 898.5Q1040.93 787.43, 1152 796.37Q1201.47 725.84, 1272 775.3Q1334.4 765.7, 1344 828.1Q1362.43 774.54, 1416 792.97Q1439.09 744.06, 1488 767.15z" fill="#356cb1"></path><path d="M1512 1000L0 1000 L0 909.33Q72.5 909.84, 72 982.34Q150.53 940.88, 192 1019.41Q202.88 958.28, 264 969.16Q307.2 940.36, 336 983.56Q351.03 926.59, 408 941.61Q417.92 879.53, 480 889.45Q549.61 839.06, 600 908.66Q660.18 896.84, 672 957.02Q702.93 915.95, 744 946.89Q790.16 873.05, 864 919.2Q888.85 872.05, 936 896.9Q965.31 854.21, 1008 883.52Q1080.35 835.87, 1128 908.21Q1217.35 925.56, 1200 1014.91Q1193.15 936.06, 1272 929.2Q1318.48 855.68, 1392 902.17Q1445.86 836.03, 1512 889.89z" fill="white"></path></g><defs><mask id="SvgjsMask1074"><rect width="1440" height="1000" fill="#ffffff"></rect></mask></defs></svg>