<svg xmlns="http://www.w3.org/2000/svg" version="1.1" xmlns:xlink="http://www.w3.org/1999/xlink" xmlns:svgjs="http://svgjs.com/svgjs" width="1440" height="571" preserveAspectRatio="none" viewBox="0 0 1440 571"><g mask="url(&quot;#SvgjsMask1764&quot;)" fill="none"><rect width="1440" height="571" x="0" y="0" fill="url(#SvgjsRadialGradient1765)"></rect><path d="M-77.57 49.03C119.01 52.62 353.45 290.02 665.73 305.98 978.01 321.94 917.98 596.41 1037.38 615.82" stroke="rgba(51,121,194,0.58)" strokeWidth="2"></path><path d="M-160.93 233.69C-21.07 231.38 150.86 48 369.83 56.68 588.8 65.36 512.71 511.69 635.21 600.43" stroke="rgba(51,121,194,0.58)" strokeWidth="2"></path><path d="M-124.15 256.11C56.26 253.35 208.43 30.78 562.38 33.42 916.32 36.06 1028.93 566.31 1248.9 601.52" stroke="rgba(51,121,194,0.58)" strokeWidth="2"></path><path d="M-152.55 491.72C-45.76 490.31 46.87 365.09 255.74 366.1 464.61 367.11 538 652.68 664.03 668.55" stroke="rgba(51,121,194,0.58)" strokeWidth="2"></path><path d="M-99.15 152.02C8.12 152.27 112.4 223.4 323.95 223.39 535.49 223.39 513.22 142.08 747.04 152.02 980.87 161.96 1017.84 580.16 1170.14 623.81" stroke="rgba(51,121,194,0.58)" strokeWidth="2"></path></g><defs><mask id="SvgjsMask1764"><rect width="1440" height="571" fill="#ffffff"></rect></mask><radialGradient cx="100%" cy="0%" r="1549.08" gradientUnits="userSpaceOnUse" id="SvgjsRadialGradient1765"><stop stop-color="#0e2a47" offset="0"></stop><stop stop-color="rgba(0, 0, 255, 0.1)" offset="1"></stop></radialGradient></defs></svg>