<svg xmlns="http://www.w3.org/2000/svg" version="1.1" xmlns:xlink="http://www.w3.org/1999/xlink" xmlns:svgjs="http://svgjs.com/svgjs" width="1440" height="1200" preserveAspectRatio="none" viewBox="0 0 1440 1200"><g mask="url(&quot;#SvgjsMask1762&quot;)" fill="none"><rect width="1440" height="1200" x="0" y="0" fill="rgba(0, 0, 255, 0.49)"></rect><use xlink:href="#SvgjsG1769" transform="translate(0, 0)" fill="rgba(19, 100, 181, 1)"></use><use xlink:href="#SvgjsG1769" transform="translate(0, 1024)" fill="rgba(19, 100, 181, 1)"></use><use xlink:href="#SvgjsG1769" transform="translate(1024, 0)" fill="rgba(19, 100, 181, 1)"></use><use xlink:href="#SvgjsG1769" transform="translate(1024, 1024)" fill="rgba(19, 100, 181, 1)"></use></g><defs><mask id="SvgjsMask1762"><rect width="1440" height="1200" fill="#ffffff"></rect></mask><g id="SvgjsG1766"><path d="M7.713 15.485C3.459 15.485 0 12.025 0 7.768 0 3.513 3.459 0.051 7.713 0.051S15.432 3.513 15.432 7.768c0 4.257-3.465 7.716-7.719 7.717z m0-1.91c3.201 0 5.81-2.604 5.81-5.809 0-3.199-2.61-5.807-5.81-5.807-3.202 0-5.804 2.609-5.804 5.807-0.001 3.206 2.602 5.809 5.804 5.809z"></path><path d="M7.753 8.787a0.574 0.574 0 0 1-0.554-0.042 0.578 0.578 0 0 1-0.259-0.399L6.931 3.862a0.58 0.58 0 0 1 1.162 0v3.478l2.975-1.4a0.578 0.578 0 0 1 0.773 0.275c0.138 0.292 0.011 0.637-0.276 0.774l-3.81 1.798z"></path></g><g id="SvgjsG1764"><path d="M11.986 8.245a46.749 46.749 0 0 1-0.521-0.411c-0.146-0.116-0.293-0.233-0.44-0.348-0.88-0.688-1.797-1.316-2.816-1.407A2.815 2.815 0 0 0 7.954 6.067c-0.086 0-0.171 0.011-0.255 0.018-1.022 0.093-1.942 0.717-2.826 1.408l0.093 0.073c0.108 0.085 0.213 0.168 0.32 0.252C6.165 7.137 7.021 6.576 7.954 6.576c0.93 0 1.784 0.558 2.66 1.236a35.098 35.098 0 0 1 0.535 0.421c0.142 0.113 0.283 0.226 0.426 0.338C12.532 9.32 13.531 10 14.658 10c0.437 0 0.854-0.104 1.257-0.273v-0.557c-0.409 0.197-0.825 0.32-1.257 0.32-0.934 0-1.792-0.563-2.672-1.245z"></path><path d="M11.574 7.496c0.029 0.023 0.059 0.046 0.088 0.07 0.109 0.087 0.216 0.17 0.325 0.256 0.318-0.246 0.635-0.476 0.952-0.67v1.37c0.17 0.111 0.34 0.214 0.51 0.301V6.878c0.315-0.147 0.634-0.248 0.96-0.283v2.537c0.078 0.01 0.157 0.018 0.237 0.018 0.091 0 0.183-0.009 0.273-0.021V6.592c0.34 0.037 0.67 0.144 0.996 0.3V6.336C15.514 6.17 15.099 6.067 14.664 6.067c-1.128 0-2.13 0.68-3.09 1.429z m-7.248 1.08c-0.034-0.027-0.068-0.053-0.102-0.08-0.104-0.083-0.207-0.162-0.31-0.245-0.877 0.678-1.733 1.238-2.665 1.238C0.82 9.49 0.407 9.36 0 9.152v0.562C0.401 9.891 0.815 10 1.249 10c1.124 0 2.122-0.677 3.077-1.423z"></path><path d="M0.989 9.133c0.084 0.011 0.17 0.019 0.254 0.02 0.086 0 0.171-0.008 0.256-0.02V6.592c0.329 0.035 0.65 0.136 0.967 0.285-0.002 0.012-0.007 0.023-0.007 0.036v1.903a5.818 5.818 0 0 0 0.51-0.303V7.152c0.487 0.3 0.971 0.684 1.467 1.08C5.525 9.101 6.652 10 7.948 10c1.123 0 2.121-0.675 3.078-1.42l-0.106-0.084c-0.103-0.082-0.205-0.161-0.306-0.242-0.313 0.242-0.622 0.466-0.934 0.658V7.564A5.816 5.816 0 0 0 9.17 7.261v1.893c0 0.01 0.004 0.019 0.005 0.029-0.316 0.149-0.637 0.252-0.965 0.288V6.937a1.97 1.97 0 0 0-0.267-0.02c-0.082 0-0.163 0.008-0.243 0.017v2.541c-0.33-0.035-0.652-0.136-0.969-0.283 0.002-0.013 0.006-0.024 0.006-0.039V7.248a5.629 5.629 0 0 0-0.51 0.302v1.368c-0.49-0.299-0.976-0.686-1.474-1.083C3.666 6.966 2.539 6.067 1.243 6.067c-0.432 0-0.844 0.096-1.243 0.251v0.55c0.324-0.144 0.652-0.244 0.989-0.278V9.133z"></path></g><g id="SvgjsG1765"><path d="M15.233 9.431c0.295 0 0.569-0.239 0.61-0.532 0 0 0.056-0.411 0.056-0.899s-0.056-0.899-0.056-0.899c-0.041-0.292-0.315-0.531-0.61-0.53h-1.524c-0.295 0-0.602-0.188-0.681-0.418s-0.188-0.967 0.021-1.176l1.078-1.077c0.209-0.209 0.225-0.565 0.036-0.792l-1.268-1.268c-0.227-0.189-0.583-0.173-0.792 0.036l-1.078 1.077c-0.208 0.209-0.556 0.293-0.772 0.187s-0.822-0.552-0.821-0.847V0.767c0-0.295-0.239-0.569-0.531-0.61 0 0-0.411-0.057-0.9-0.056s-0.899 0.057-0.899 0.056c-0.293 0.04-0.532 0.315-0.532 0.61v1.524c0 0.295-0.188 0.601-0.418 0.681s-0.967 0.188-1.176-0.021l-1.078-1.078C3.689 1.665 3.333 1.649 3.107 1.837l-1.268 1.268c-0.189 0.227-0.173 0.583 0.036 0.792l1.077 1.078c0.209 0.209 0.293 0.556 0.187 0.772s-0.552 0.822-0.847 0.822H0.767c-0.295 0-0.569 0.239-0.61 0.531 0 0-0.057 0.411-0.056 0.899s0.057 0.899 0.056 0.9c0.04 0.293 0.315 0.532 0.61 0.532h1.525c0.295 0 0.601 0.188 0.681 0.417 0.079 0.23 0.188 0.967-0.02 1.176l-1.078 1.077C1.667 12.311 1.651 12.667 1.84 12.893l1.267 1.268c0.227 0.189 0.583 0.173 0.792-0.036l1.077-1.077c0.209-0.208 0.556-0.292 0.772-0.187s0.821 0.553 0.822 0.848v1.524c0 0.295 0.239 0.569 0.532 0.61 0 0 0.411 0.057 0.899 0.057s0.899-0.056 0.899-0.057c0.293-0.04 0.531-0.315 0.532-0.609v-1.524c0-0.295 0.188-0.602 0.418-0.681 0.23-0.079 0.967-0.188 1.176 0.021l1.077 1.077c0.209 0.209 0.565 0.225 0.792 0.036l1.268-1.267c0.189-0.227 0.173-0.583-0.036-0.792l-1.078-1.077c-0.209-0.209-0.293-0.557-0.186-0.773 0.106-0.216 0.552-0.822 0.847-0.822h1.525zM8 10.892c-1.597 0-2.891-1.294-2.891-2.892 0-1.596 1.295-2.891 2.891-2.891S10.892 6.404 10.892 8 9.597 10.892 8 10.892z"></path></g><g id="SvgjsG1768"><path d="M9.531 2.655a1.328 1.328 0 0 0 1.327-1.328C10.859 0.593 10.264-0.002 9.531 0a1.324 1.324 0 0 0-1.328 1.327c-0.002 0.733 0.594 1.328 1.328 1.328zM7.821 5.099l0.008 10.145c0.002 1.012 1.495 1.003 1.491-0.024l0.008-5.903h0.289v5.896c-0.003 1.032 1.507 1.058 1.507 0.031V5.052h0.266v3.64c-0.004 0.875 1.181 0.875 1.179 0.015V4.733c0.003-1.073-0.794-1.703-1.632-1.703h-2.367c-0.56 0-0.967 0.221-1.312 0.711l-1.195 1.741H3.994c-0.837 0-0.79 1.182-0.015 1.18H6.368c0.186 0.003 0.414-0.067 0.547-0.266l0.905-1.296z" fillRule="evenodd"></path></g><g id="SvgjsG1763"><path d="M14.885 8.725h-1.479v5.687c0.01 1.007 1.48 1.007 1.479 0V8.725z m-1.69 0h-1.479v5.687c0.006 1 1.476 1 1.479 0V8.725z m-3.593 0h-1.479v5.687c0.009 1.007 1.48 1.007 1.479 0V8.725z m-1.691 0h-1.479v5.687c0.006 1 1.477 1 1.479 0V8.725z m-3.592 0h-1.479v5.687c0.009 1.007 1.48 1.007 1.479 0V8.725z m-1.69 0h-1.479v5.687c0.005 1 1.477 1 1.479 0V8.725z"></path><path d="M15.828 8.303a0.57 0.57 0 0 1-0.578 0.577s-3.866 0.005-3.88 0a0.576 0.576 0 0 1-0.576-0.577V4.096a0.793 0.793 0 0 1 0.806-0.807c-0.005-0.005 3.419 0 3.418 0a0.792 0.792 0 0 1 0.808 0.807v4.206h0.001zM13.329 2.944c0.606 0 1.099-0.494 1.095-1.096A1.1 1.1 0 0 0 13.329 0.734a1.119 1.119 0 0 0-1.114 1.114 1.113 1.113 0 0 0 1.114 1.096z m-2.785 5.359a0.567 0.567 0 0 1-0.576 0.577s-3.866 0.005-3.881 0a0.576 0.576 0 0 1-0.576-0.577V4.096a0.794 0.794 0 0 1 0.807-0.807c-0.005-0.005 3.419 0 3.419 0a0.791 0.791 0 0 1 0.807 0.807v4.206zM8.047 2.944c0.605 0 1.099-0.494 1.094-1.096A1.1 1.1 0 0 0 8.047 0.734a1.12 1.12 0 0 0-1.115 1.114 1.114 1.114 0 0 0 1.114 1.096z m-2.787 5.359a0.568 0.568 0 0 1-0.576 0.577s-3.866 0.005-3.88 0a0.576 0.576 0 0 1-0.576-0.577V4.096a0.793 0.793 0 0 1 0.807-0.808c-0.005-0.005 3.42 0 3.419 0a0.791 0.791 0 0 1 0.807 0.807v4.207zM2.763 2.944c0.606 0 1.1-0.494 1.096-1.096A1.1 1.1 0 0 0 2.763 0.734a1.118 1.118 0 0 0-1.113 1.114A1.112 1.112 0 0 0 2.763 2.944z"></path></g><g id="SvgjsG1767"><path d="M8.43 3.58a1.188 1.188 0 0 0 0-2.372 1.186 1.186 0 0 0 0 2.372"></path><path d="M9.314 3.844h-1.73L4.634 0.894A0.6 0.6 0 0 0 3.78 0.874a0.6 0.6 0 0 0-0.024 0.856l3.08 3.086v10.228a0.664 0.664 0 0 0 1.334 0V9.496h0.54v5.548c0 0.37 0.304 0.668 0.67 0.668 0.368 0 0.664-0.3 0.664-0.668L10.04 4.816 13.12 1.73a0.6 0.6 0 0 0-0.02-0.854 0.6 0.6 0 0 0-0.856 0.02L9.314 3.84z"></path></g><g id="SvgjsG1769"><use xlink:href="#SvgjsG1763" transform="translate(0, 0) scale(1.6)" fill="rgba(19, 100, 181, 1)"></use><use xlink:href="#SvgjsG1764" transform="translate(0, 102.4) scale(1.6)" fill="rgba(19, 100, 181, 1)"></use><use xlink:href="#SvgjsG1765" transform="translate(0, 204.8) scale(1.6)" fill="rgba(19, 100, 181, 1)"></use><use xlink:href="#SvgjsG1766" transform="translate(0, 307.20000000000005) scale(1.6)" fill="rgba(19, 100, 181, 1)"></use><use xlink:href="#SvgjsG1764" transform="translate(0, 409.6) scale(1.6)" fill="rgba(19, 100, 181, 1)"></use><use xlink:href="#SvgjsG1767" transform="translate(0, 512) scale(1.6)" fill="rgba(19, 100, 181, 1)"></use><use xlink:href="#SvgjsG1767" transform="translate(0, 614.4000000000001) scale(1.6)" fill="rgba(19, 100, 181, 1)"></use><use xlink:href="#SvgjsG1765" transform="translate(0, 716.8000000000001) scale(1.6)" fill="rgba(19, 100, 181, 1)"></use><use xlink:href="#SvgjsG1766" transform="translate(0, 819.2) scale(1.6)" fill="rgba(19, 100, 181, 1)"></use><use xlink:href="#SvgjsG1763" transform="translate(0, 921.6) scale(1.6)" fill="rgba(19, 100, 181, 1)"></use><use xlink:href="#SvgjsG1767" transform="translate(102.4, 0) scale(1.6)" fill="rgba(19, 100, 181, 1)"></use><use xlink:href="#SvgjsG1768" transform="translate(102.4, 102.4) scale(1.6)" fill="rgba(19, 100, 181, 1)"></use><use xlink:href="#SvgjsG1767" transform="translate(102.4, 204.8) scale(1.6)" fill="rgba(19, 100, 181, 1)"></use><use xlink:href="#SvgjsG1763" transform="translate(102.4, 307.20000000000005) scale(1.6)" fill="rgba(19, 100, 181, 1)"></use><use xlink:href="#SvgjsG1763" transform="translate(102.4, 409.6) scale(1.6)" fill="rgba(19, 100, 181, 1)"></use><use xlink:href="#SvgjsG1765" transform="translate(102.4, 512) scale(1.6)" fill="rgba(19, 100, 181, 1)"></use><use xlink:href="#SvgjsG1765" transform="translate(102.4, 614.4000000000001) scale(1.6)" fill="rgba(19, 100, 181, 1)"></use><use xlink:href="#SvgjsG1768" transform="translate(102.4, 716.8000000000001) scale(1.6)" fill="rgba(19, 100, 181, 1)"></use><use xlink:href="#SvgjsG1764" transform="translate(102.4, 819.2) scale(1.6)" fill="rgba(19, 100, 181, 1)"></use><use xlink:href="#SvgjsG1765" transform="translate(102.4, 921.6) scale(1.6)" fill="rgba(19, 100, 181, 1)"></use><use xlink:href="#SvgjsG1768" transform="translate(204.8, 0) scale(1.6)" fill="rgba(19, 100, 181, 1)"></use><use xlink:href="#SvgjsG1765" transform="translate(204.8, 102.4) scale(1.6)" fill="rgba(19, 100, 181, 1)"></use><use xlink:href="#SvgjsG1766" transform="translate(204.8, 204.8) scale(1.6)" fill="rgba(19, 100, 181, 1)"></use><use xlink:href="#SvgjsG1768" transform="translate(204.8, 307.20000000000005) scale(1.6)" fill="rgba(19, 100, 181, 1)"></use><use xlink:href="#SvgjsG1768" transform="translate(204.8, 409.6) scale(1.6)" fill="rgba(19, 100, 181, 1)"></use><use xlink:href="#SvgjsG1763" transform="translate(204.8, 512) scale(1.6)" fill="rgba(19, 100, 181, 1)"></use><use xlink:href="#SvgjsG1764" transform="translate(204.8, 614.4000000000001) scale(1.6)" fill="rgba(19, 100, 181, 1)"></use><use xlink:href="#SvgjsG1768" transform="translate(204.8, 716.8000000000001) scale(1.6)" fill="rgba(19, 100, 181, 1)"></use><use xlink:href="#SvgjsG1768" transform="translate(204.8, 819.2) scale(1.6)" fill="rgba(19, 100, 181, 1)"></use><use xlink:href="#SvgjsG1767" transform="translate(204.8, 921.6) scale(1.6)" fill="rgba(19, 100, 181, 1)"></use><use xlink:href="#SvgjsG1766" transform="translate(307.20000000000005, 0) scale(1.6)" fill="rgba(19, 100, 181, 1)"></use><use xlink:href="#SvgjsG1763" transform="translate(307.20000000000005, 102.4) scale(1.6)" fill="rgba(19, 100, 181, 1)"></use><use xlink:href="#SvgjsG1763" transform="translate(307.20000000000005, 204.8) scale(1.6)" fill="rgba(19, 100, 181, 1)"></use><use xlink:href="#SvgjsG1766" transform="translate(307.20000000000005, 307.20000000000005) scale(1.6)" fill="rgba(19, 100, 181, 1)"></use><use xlink:href="#SvgjsG1767" transform="translate(307.20000000000005, 409.6) scale(1.6)" fill="rgba(19, 100, 181, 1)"></use><use xlink:href="#SvgjsG1763" transform="translate(307.20000000000005, 512) scale(1.6)" fill="rgba(19, 100, 181, 1)"></use><use xlink:href="#SvgjsG1767" transform="translate(307.20000000000005, 614.4000000000001) scale(1.6)" fill="rgba(19, 100, 181, 1)"></use><use xlink:href="#SvgjsG1767" transform="translate(307.20000000000005, 716.8000000000001) scale(1.6)" fill="rgba(19, 100, 181, 1)"></use><use xlink:href="#SvgjsG1765" transform="translate(307.20000000000005, 819.2) scale(1.6)" fill="rgba(19, 100, 181, 1)"></use><use xlink:href="#SvgjsG1765" transform="translate(307.20000000000005, 921.6) scale(1.6)" fill="rgba(19, 100, 181, 1)"></use><use xlink:href="#SvgjsG1767" transform="translate(409.6, 0) scale(1.6)" fill="rgba(19, 100, 181, 1)"></use><use xlink:href="#SvgjsG1767" transform="translate(409.6, 102.4) scale(1.6)" fill="rgba(19, 100, 181, 1)"></use><use xlink:href="#SvgjsG1767" transform="translate(409.6, 204.8) scale(1.6)" fill="rgba(19, 100, 181, 1)"></use><use xlink:href="#SvgjsG1763" transform="translate(409.6, 307.20000000000005) scale(1.6)" fill="rgba(19, 100, 181, 1)"></use><use xlink:href="#SvgjsG1766" transform="translate(409.6, 409.6) scale(1.6)" fill="rgba(19, 100, 181, 1)"></use><use xlink:href="#SvgjsG1766" transform="translate(409.6, 512) scale(1.6)" fill="rgba(19, 100, 181, 1)"></use><use xlink:href="#SvgjsG1766" transform="translate(409.6, 614.4000000000001) scale(1.6)" fill="rgba(19, 100, 181, 1)"></use><use xlink:href="#SvgjsG1764" transform="translate(409.6, 716.8000000000001) scale(1.6)" fill="rgba(19, 100, 181, 1)"></use><use xlink:href="#SvgjsG1763" transform="translate(409.6, 819.2) scale(1.6)" fill="rgba(19, 100, 181, 1)"></use><use xlink:href="#SvgjsG1768" transform="translate(409.6, 921.6) scale(1.6)" fill="rgba(19, 100, 181, 1)"></use><use xlink:href="#SvgjsG1768" transform="translate(512, 0) scale(1.6)" fill="rgba(19, 100, 181, 1)"></use><use xlink:href="#SvgjsG1764" transform="translate(512, 102.4) scale(1.6)" fill="rgba(19, 100, 181, 1)"></use><use xlink:href="#SvgjsG1767" transform="translate(512, 204.8) scale(1.6)" fill="rgba(19, 100, 181, 1)"></use><use xlink:href="#SvgjsG1764" transform="translate(512, 307.20000000000005) scale(1.6)" fill="rgba(19, 100, 181, 1)"></use><use xlink:href="#SvgjsG1767" transform="translate(512, 409.6) scale(1.6)" fill="rgba(19, 100, 181, 1)"></use><use xlink:href="#SvgjsG1767" transform="translate(512, 512) scale(1.6)" fill="rgba(19, 100, 181, 1)"></use><use xlink:href="#SvgjsG1768" transform="translate(512, 614.4000000000001) scale(1.6)" fill="rgba(19, 100, 181, 1)"></use><use xlink:href="#SvgjsG1765" transform="translate(512, 716.8000000000001) scale(1.6)" fill="rgba(19, 100, 181, 1)"></use><use xlink:href="#SvgjsG1767" transform="translate(512, 819.2) scale(1.6)" fill="rgba(19, 100, 181, 1)"></use><use xlink:href="#SvgjsG1766" transform="translate(512, 921.6) scale(1.6)" fill="rgba(19, 100, 181, 1)"></use><use xlink:href="#SvgjsG1768" transform="translate(614.4000000000001, 0) scale(1.6)" fill="rgba(19, 100, 181, 1)"></use><use xlink:href="#SvgjsG1768" transform="translate(614.4000000000001, 102.4) scale(1.6)" fill="rgba(19, 100, 181, 1)"></use><use xlink:href="#SvgjsG1766" transform="translate(614.4000000000001, 204.8) scale(1.6)" fill="rgba(19, 100, 181, 1)"></use><use xlink:href="#SvgjsG1765" transform="translate(614.4000000000001, 307.20000000000005) scale(1.6)" fill="rgba(19, 100, 181, 1)"></use><use xlink:href="#SvgjsG1764" transform="translate(614.4000000000001, 409.6) scale(1.6)" fill="rgba(19, 100, 181, 1)"></use><use xlink:href="#SvgjsG1767" transform="translate(614.4000000000001, 512) scale(1.6)" fill="rgba(19, 100, 181, 1)"></use><use xlink:href="#SvgjsG1763" transform="translate(614.4000000000001, 614.4000000000001) scale(1.6)" fill="rgba(19, 100, 181, 1)"></use><use xlink:href="#SvgjsG1766" transform="translate(614.4000000000001, 716.8000000000001) scale(1.6)" fill="rgba(19, 100, 181, 1)"></use><use xlink:href="#SvgjsG1766" transform="translate(614.4000000000001, 819.2) scale(1.6)" fill="rgba(19, 100, 181, 1)"></use><use xlink:href="#SvgjsG1767" transform="translate(614.4000000000001, 921.6) scale(1.6)" fill="rgba(19, 100, 181, 1)"></use><use xlink:href="#SvgjsG1768" transform="translate(716.8000000000001, 0) scale(1.6)" fill="rgba(19, 100, 181, 1)"></use><use xlink:href="#SvgjsG1763" transform="translate(716.8000000000001, 102.4) scale(1.6)" fill="rgba(19, 100, 181, 1)"></use><use xlink:href="#SvgjsG1767" transform="translate(716.8000000000001, 204.8) scale(1.6)" fill="rgba(19, 100, 181, 1)"></use><use xlink:href="#SvgjsG1763" transform="translate(716.8000000000001, 307.20000000000005) scale(1.6)" fill="rgba(19, 100, 181, 1)"></use><use xlink:href="#SvgjsG1768" transform="translate(716.8000000000001, 409.6) scale(1.6)" fill="rgba(19, 100, 181, 1)"></use><use xlink:href="#SvgjsG1768" transform="translate(716.8000000000001, 512) scale(1.6)" fill="rgba(19, 100, 181, 1)"></use><use xlink:href="#SvgjsG1764" transform="translate(716.8000000000001, 614.4000000000001) scale(1.6)" fill="rgba(19, 100, 181, 1)"></use><use xlink:href="#SvgjsG1766" transform="translate(716.8000000000001, 716.8000000000001) scale(1.6)" fill="rgba(19, 100, 181, 1)"></use><use xlink:href="#SvgjsG1768" transform="translate(716.8000000000001, 819.2) scale(1.6)" fill="rgba(19, 100, 181, 1)"></use><use xlink:href="#SvgjsG1768" transform="translate(716.8000000000001, 921.6) scale(1.6)" fill="rgba(19, 100, 181, 1)"></use><use xlink:href="#SvgjsG1763" transform="translate(819.2, 0) scale(1.6)" fill="rgba(19, 100, 181, 1)"></use><use xlink:href="#SvgjsG1767" transform="translate(819.2, 102.4) scale(1.6)" fill="rgba(19, 100, 181, 1)"></use><use xlink:href="#SvgjsG1767" transform="translate(819.2, 204.8) scale(1.6)" fill="rgba(19, 100, 181, 1)"></use><use xlink:href="#SvgjsG1765" transform="translate(819.2, 307.20000000000005) scale(1.6)" fill="rgba(19, 100, 181, 1)"></use><use xlink:href="#SvgjsG1765" transform="translate(819.2, 409.6) scale(1.6)" fill="rgba(19, 100, 181, 1)"></use><use xlink:href="#SvgjsG1768" transform="translate(819.2, 512) scale(1.6)" fill="rgba(19, 100, 181, 1)"></use><use xlink:href="#SvgjsG1768" transform="translate(819.2, 614.4000000000001) scale(1.6)" fill="rgba(19, 100, 181, 1)"></use><use xlink:href="#SvgjsG1763" transform="translate(819.2, 716.8000000000001) scale(1.6)" fill="rgba(19, 100, 181, 1)"></use><use xlink:href="#SvgjsG1765" transform="translate(819.2, 819.2) scale(1.6)" fill="rgba(19, 100, 181, 1)"></use><use xlink:href="#SvgjsG1767" transform="translate(819.2, 921.6) scale(1.6)" fill="rgba(19, 100, 181, 1)"></use><use xlink:href="#SvgjsG1767" transform="translate(921.6, 0) scale(1.6)" fill="rgba(19, 100, 181, 1)"></use><use xlink:href="#SvgjsG1764" transform="translate(921.6, 102.4) scale(1.6)" fill="rgba(19, 100, 181, 1)"></use><use xlink:href="#SvgjsG1763" transform="translate(921.6, 204.8) scale(1.6)" fill="rgba(19, 100, 181, 1)"></use><use xlink:href="#SvgjsG1764" transform="translate(921.6, 307.20000000000005) scale(1.6)" fill="rgba(19, 100, 181, 1)"></use><use xlink:href="#SvgjsG1763" transform="translate(921.6, 409.6) scale(1.6)" fill="rgba(19, 100, 181, 1)"></use><use xlink:href="#SvgjsG1763" transform="translate(921.6, 512) scale(1.6)" fill="rgba(19, 100, 181, 1)"></use><use xlink:href="#SvgjsG1767" transform="translate(921.6, 614.4000000000001) scale(1.6)" fill="rgba(19, 100, 181, 1)"></use><use xlink:href="#SvgjsG1767" transform="translate(921.6, 716.8000000000001) scale(1.6)" fill="rgba(19, 100, 181, 1)"></use><use xlink:href="#SvgjsG1763" transform="translate(921.6, 819.2) scale(1.6)" fill="rgba(19, 100, 181, 1)"></use><use xlink:href="#SvgjsG1767" transform="translate(921.6, 921.6) scale(1.6)" fill="rgba(19, 100, 181, 1)"></use></g></defs></svg>