<svg xmlns="http://www.w3.org/2000/svg" version="1.1" xmlns:xlink="http://www.w3.org/1999/xlink" xmlns:svgjs="http://svgjs.com/svgjs" width="1440" height="560" preserveAspectRatio="none" viewBox="0 0 1440 560"><g mask="url(&quot;#SvgjsMask1108&quot;)" fill="none"><rect width="1440" height="560" x="0" y="0" fill="url(#SvgjsLinearGradient1109)"></rect><path d="M -196.4296954901189,306 C -155.23,262 -72.83,69 9.570304509881122,86 C 91.97,103 133.17,377.4 215.5703045098811,391 C 297.97,404.6 339.17,146.2 421.5703045098811,154 C 503.97,161.8 545.17,446.2 627.5703045098811,430 C 709.97,413.8 751.17,73.6 833.5703045098811,73 C 915.97,72.4 957.17,412.8 1039.5703045098812,427 C 1121.97,441.2 1163.17,163.4 1245.5703045098812,144 C 1327.97,124.6 1412.68,318.8 1451.5703045098812,330 C 1490.46,341.2 1442.31,226 1440,200" stroke="rgba(51, 121, 194, 0.58)" strokeWidth="2"></path><path d="M -384.07712147176386,109 C -342.88,172.2 -260.48,414.8 -178.07712147176386,425 C -95.68,435.2 -54.48,168.6 27.92287852823614,160 C 110.32,151.4 151.52,369.8 233.92287852823614,382 C 316.32,394.2 357.52,219.8 439.92287852823614,221 C 522.32,222.2 563.52,406.6 645.9228785282362,388 C 728.32,369.4 769.52,108.6 851.9228785282362,128 C 934.32,147.4 975.52,464.6 1057.9228785282362,485 C 1140.32,505.4 1187.51,264.6 1263.9228785282362,230 C 1340.34,195.4 1404.78,295.6 1440,312" stroke="rgba(51, 121, 194, 0.58)" strokeWidth="2"></path><path d="M -145.79892177907018,292 C -104.6,265.8 -22.2,144.2 60.201078220929816,161 C 142.6,177.8 183.8,370.4 266.20107822092984,376 C 348.6,381.6 389.8,170.6 472.20107822092984,189 C 554.6,207.4 595.8,466.2 678.2010782209298,468 C 760.6,469.8 801.8,198.2 884.2010782209298,198 C 966.6,197.8 1007.8,464 1090.2010782209297,467 C 1172.6,470 1213.8,208.6 1296.2010782209297,213 C 1378.6,217.4 1473.44,489.6 1502.2010782209297,489 C 1530.96,488.4 1452.44,265.8 1440,210" stroke="rgba(51, 121, 194, 0.58)" strokeWidth="2"></path><path d="M -127.63989219255544,336 C -86.44,295.2 -4.04,136.4 78.36010780744456,132 C 160.76,127.6 201.96,320 284.3601078074446,314 C 366.76,308 407.96,68.4 490.3601078074446,102 C 572.76,135.6 613.96,453.2 696.3601078074446,482 C 778.76,510.8 819.96,256.6 902.3601078074446,246 C 984.76,235.4 1025.96,425.8 1108.3601078074446,429 C 1190.76,432.2 1231.96,258.2 1314.3601078074446,262 C 1396.76,265.8 1495.23,459.8 1520.3601078074446,448 C 1545.49,436.2 1456.07,252 1440,203" stroke="rgba(51, 121, 194, 0.58)" strokeWidth="2"></path></g><defs><mask id="SvgjsMask1108"><rect width="1440" height="560" fill="#ffffff"></rect></mask><linearGradient x1="84.72%" y1="-39.29%" x2="15.28%" y2="139.29%" gradientUnits="userSpaceOnUse" id="SvgjsLinearGradient1109"><stop stop-color="#0e2a47" offset="0"></stop><stop stop-color="rgba(0, 0, 255, 0.01)" offset="1"></stop></linearGradient></defs></svg>